<svg width="141" height="28" viewBox="0 0 141 28" fill="none" xmlns="http://www.w3.org/2000/svg">
<mask id="mask0_306_1863" style="mask-type:luminance" maskUnits="userSpaceOnUse" x="0" y="0" width="123" height="28">
<path d="M123 0H0V27.1324H123V0Z" fill="white"/>
</mask>
<g mask="url(#mask0_306_1863)">
<path d="M101.358 8.1917V18.1207L109.9 20.9774L118.441 18.1207V8.1917H101.358Z" fill="white"/>
<path d="M109.904 17.7668H107.249V16.892C106.98 17.2492 106.623 17.5334 106.212 17.7183C105.801 17.903 105.349 17.9822 104.898 17.9485C104.566 17.9739 104.231 17.9305 103.916 17.821C103.601 17.7116 103.313 17.5383 103.071 17.3126C102.835 17.0931 102.652 16.8253 102.534 16.5281C102.416 16.2309 102.366 15.9116 102.387 15.5933V10.8827H105.121V14.4998C105.121 15.2972 105.223 15.8456 106.03 15.8456C106.501 15.8456 107.126 15.62 107.126 14.5199V10.8827H109.904V17.7668Z" fill="#101F6D"/>
<path d="M114.785 12.7599C114.778 12.6537 114.746 12.5505 114.691 12.4586C114.637 12.3667 114.561 12.2891 114.47 12.2317C114.294 12.089 114.069 12.0149 113.841 12.0232C113.455 12.0232 113.021 12.1073 113.021 12.5749C113.021 12.7735 113.185 12.8677 113.336 12.9348C113.79 13.1267 114.815 13.1839 115.728 13.4833C116.64 13.7828 117.436 14.2942 117.436 15.4551C117.436 17.4133 115.547 17.9482 113.817 17.9482C112.088 17.9482 110.291 17.2753 110.247 15.4551H112.864C112.874 15.5764 112.91 15.6944 112.969 15.8015C113.028 15.9085 113.108 16.0026 113.206 16.0775C113.417 16.2294 113.676 16.302 113.937 16.2828C114.296 16.2828 114.856 16.1482 114.856 15.7343C114.856 15.3205 114.624 15.206 113.356 14.994C111.286 14.6375 110.449 13.9847 110.449 12.7735C110.449 10.9969 112.389 10.5461 113.81 10.5461C115.352 10.5461 117.204 10.9632 117.272 12.7735L114.785 12.7599Z" fill="#101F6D"/>
<path d="M2.27867 0.270813H25.0565C26.1664 0.270813 27.0629 1.16347 27.0629 2.26052V24.8708C27.0629 25.9679 26.1664 26.8605 25.0565 26.8605H2.27867C1.16865 26.8605 0.272217 25.9679 0.272217 24.8708V2.26052C0.272217 1.16347 1.16865 0.270813 2.27867 0.270813Z" fill="white" stroke="#D8D8D8" stroke-width="0.5"/>
<path fill-rule="evenodd" clip-rule="evenodd" d="M13.604 19.4856C16.8632 16.5925 21.366 13.8225 23.9141 12.7759C23.4995 12.5297 22.907 12.1606 22.2554 11.7299C19.0553 12.8378 15.2631 15.2999 11.8857 18.0698C12.4786 18.5622 13.0711 18.993 13.604 19.4856Z" fill="#E21737"/>
<path fill-rule="evenodd" clip-rule="evenodd" d="M12.129 11.6672C11.6552 11.4211 11.1219 11.1749 10.7068 10.9902C9.46267 11.6059 7.92226 12.5907 5.9072 14.0677C6.32223 14.3141 6.7964 14.6218 7.27014 14.8681C8.87018 13.6984 10.4106 12.5907 12.129 11.6672Z" fill="#081F65"/>
<path fill-rule="evenodd" clip-rule="evenodd" d="M15.0314 10.2525C14.439 9.94483 12.4244 9.1446 11.0023 8.77542C10.5877 8.95992 9.99479 9.2061 9.58023 9.32947C10.1135 9.45228 12.0099 10.0063 13.6099 10.868C14.0244 10.6835 14.6169 10.4372 15.0314 10.2525Z" fill="#E21737"/>
<path fill-rule="evenodd" clip-rule="evenodd" d="M8.16058 10.0672C6.38309 10.9289 4.48681 12.0985 3.42056 12.8371C3.77598 13.0216 4.13141 13.1449 4.66474 13.3911C6.97561 11.7906 8.7531 10.8057 9.46437 10.4979C8.93104 10.3134 8.45683 10.1904 8.16058 10.0672Z" fill="#081F65"/>
<path fill-rule="evenodd" clip-rule="evenodd" d="M16.3892 9.75998C16.8037 9.63698 17.2779 9.51379 17.6928 9.32929C16.508 8.77525 14.967 8.22121 13.6041 7.91353C13.3675 7.97503 12.7153 8.15971 12.3008 8.28289C12.7749 8.46739 14.3154 8.83694 16.3892 9.75998Z" fill="#E21737"/>
<path fill-rule="evenodd" clip-rule="evenodd" d="M8.80475 15.7916C9.27848 16.0993 9.81183 16.5304 10.3452 16.8382C13.7227 14.1299 17.0411 12.0371 20.7144 10.806C20.181 10.5598 19.7664 10.3134 19.174 10.0056C16.9223 10.6213 13.1894 12.2216 8.80475 15.7916Z" fill="#E21737"/>
<mask id="mask1_306_1863" style="mask-type:luminance" maskUnits="userSpaceOnUse" x="63" y="-1" width="29" height="29">
<path d="M88.8305 -0.000473022H66.0528C64.7947 -0.000473022 63.7749 1.01174 63.7749 2.26056V24.8708C63.7749 26.1197 64.7947 27.1319 66.0528 27.1319H88.8305C90.0884 27.1319 91.1082 26.1197 91.1082 24.8708V2.26056C91.1082 1.01174 90.0884 -0.000473022 88.8305 -0.000473022Z" fill="white"/>
</mask>
<g mask="url(#mask1_306_1863)">
<path d="M91.1082 -0.000473022H63.7749V27.1319H91.1082V-0.000473022Z" fill="white"/>
<path d="M63.7749 11.8699V23.7403H77.4416H91.1082V11.8699V-0.000473022H77.4416H63.7749V11.8699ZM71.434 9.00132C71.3913 9.50996 71.3627 9.53818 70.8646 9.58069C70.5656 9.60891 70.3236 9.66534 70.3236 9.70784C70.3236 9.79268 70.9073 11.9123 71.434 13.707L71.6617 14.4842L71.9038 13.6364C72.0461 13.1699 72.4305 11.8133 72.7579 10.6264L73.3416 8.47839H74.2384C74.9788 8.47839 75.1638 8.52072 75.2208 8.7186C75.6621 10.1601 76.7297 14.0602 76.7297 14.2158C76.7297 14.3289 76.7726 14.4137 76.8436 14.4137C76.9006 14.4137 77.228 13.3396 77.584 12.0112L78.2388 9.62301L77.6551 9.58069C77.1141 9.53818 77.0857 9.52407 77.043 9.00132L77.0003 8.47839H82.3389H87.6915V9.90573V11.3188L87.2361 11.2765C86.8517 11.234 86.7663 11.1634 86.6524 10.7394C86.5811 10.471 86.396 10.1034 86.2253 9.91984C85.969 9.63712 85.7982 9.6089 84.6024 9.6089H83.2784V10.9514V12.2939H84.5597H85.8409V12.8592V13.4244H84.5597H83.2784V14.668V15.9116L83.8478 15.8549L84.4172 15.7985V16.3779V16.9572H82.3389H80.2746L80.3173 16.4202C80.36 15.9398 80.3884 15.8975 80.8298 15.8832H81.2995L81.3281 12.7461L81.3565 9.6089H80.474H79.5913L79.4346 10.1318C79.3492 10.4285 78.8795 12.0678 78.3812 13.7777L77.4986 16.8865H76.5873H75.6762L74.8791 14.032C74.4377 12.4634 74.0534 11.1493 74.025 11.1068C73.9823 11.0786 73.5693 12.3788 73.1139 14.0038L72.2597 16.9572H71.3627H70.4659L70.3093 16.3497C70.2239 16.0246 69.7683 14.3853 69.2842 12.7177L68.4017 9.67963L67.9034 9.6089C67.4479 9.53818 67.4052 9.49585 67.3623 9.00132L67.3196 8.47839H69.3982H71.4767L71.434 9.00132Z" fill="#D71E28"/>
<path d="M91.1082 23.7406H63.7749V27.1321H91.1082V23.7406Z" fill="#FFCD41"/>
</g>
<path fill-rule="evenodd" clip-rule="evenodd" d="M51.9237 10.577H51.5612C48.9222 10.577 46.2872 10.577 43.6482 10.577C43.3025 10.577 43.18 10.4889 43.1929 10.1317C43.2139 9.23684 43.1929 8.33768 43.1929 7.44267C43.1929 6.93856 43.3403 6.783 43.8336 6.783C45.0983 6.783 46.3842 6.783 47.6616 6.783C47.828 6.78101 47.9903 6.836 48.121 6.93856C49.3563 8.08969 50.5747 9.24933 51.8014 10.409C51.8394 10.4553 51.8731 10.4972 51.9237 10.577Z" fill="white"/>
<path fill-rule="evenodd" clip-rule="evenodd" d="M48.6268 19.9297C48.6268 19.7743 48.6268 19.6734 48.6268 19.5685C48.6268 16.9339 48.6268 14.2997 48.6268 11.6693C48.6268 11.3123 48.7364 11.2115 49.0864 11.2198C49.9716 11.245 50.8612 11.2198 51.7506 11.2198C52.265 11.2198 52.3873 11.3333 52.3873 11.8291C52.3873 13.1272 52.3873 14.4258 52.3873 15.724C52.385 15.9141 52.318 16.0977 52.1976 16.2449C51.0931 17.4257 49.9716 18.5894 48.8545 19.7575C48.7829 19.8203 48.7067 19.8778 48.6268 19.9297Z" fill="white"/>
<path fill-rule="evenodd" clip-rule="evenodd" d="M39.2724 16.6694H47.4763C47.9569 16.6694 47.9569 16.6694 47.9569 17.1569C47.9569 18.0266 47.9569 18.9006 47.9569 19.7745C47.9569 20.2493 47.7966 20.4047 47.3245 20.4088C46.0218 20.4088 44.7234 20.4088 43.4207 20.4088C43.2672 20.4119 43.1174 20.3596 42.9991 20.2619C41.7935 19.1358 40.5962 17.9971 39.4031 16.8586C39.3549 16.7989 39.3111 16.7356 39.2724 16.6694Z" fill="white"/>
<path fill-rule="evenodd" clip-rule="evenodd" d="M42.4766 7.32874C42.4766 7.49243 42.4766 7.60603 42.4766 7.7236C42.4766 10.316 42.4766 12.9126 42.4766 15.5091C42.4766 15.8747 42.3753 15.9923 42.0002 15.9798C41.1023 15.9547 40.2 15.9798 39.3021 15.9798C38.851 15.9798 38.7202 15.8452 38.7202 15.3872C38.7202 14.089 38.7202 12.7907 38.7202 11.4966C38.7202 11.3309 38.7751 11.1701 38.8763 11.0386C39.9976 9.84535 41.1361 8.66057 42.2489 7.47579C42.3213 7.42134 42.3972 7.37215 42.4766 7.32874Z" fill="white"/>
</g>
<rect x="96" width="27" height="27" rx="2" fill="#111F6E"/>
<path d="M100.605 6.8625V17.4434L109.822 20.4875L119.039 17.4434V6.8625H100.605Z" fill="white"/>
<path d="M109.823 17.067H106.958V16.1348C106.668 16.5155 106.283 16.8184 105.839 17.0153C105.396 17.2121 104.908 17.2965 104.422 17.2606C104.063 17.2878 103.702 17.2416 103.362 17.1248C103.022 17.0081 102.712 16.8235 102.45 16.5829C102.196 16.3492 101.998 16.0638 101.87 15.747C101.743 15.4303 101.689 15.0901 101.712 14.7507V9.731H104.662V13.5854C104.662 14.4352 104.772 15.0197 105.642 15.0197C106.151 15.0197 106.826 14.7794 106.826 13.607V9.731H109.823V17.067Z" fill="#111F6E"/>
<path d="M115.083 11.7313C115.077 11.618 115.042 11.508 114.983 11.4101C114.924 11.3123 114.842 11.2294 114.744 11.1683C114.554 11.0162 114.312 10.9371 114.066 10.946C113.649 10.946 113.181 11.0357 113.181 11.5341C113.181 11.7456 113.358 11.846 113.52 11.9177C114.011 12.1221 115.117 12.183 116.101 12.5022C117.085 12.8213 117.944 13.3663 117.944 14.6033C117.944 16.6901 115.905 17.2602 114.04 17.2602C112.175 17.2602 110.235 16.543 110.188 14.6033H113.011C113.022 14.7326 113.061 14.8583 113.124 14.9725C113.188 15.0867 113.275 15.1868 113.38 15.2666C113.608 15.4284 113.888 15.5059 114.169 15.4853C114.556 15.4853 115.161 15.3419 115.161 14.9009C115.161 14.4599 114.91 14.3379 113.542 14.1121C111.308 13.732 110.405 13.0364 110.405 11.7456C110.405 9.85245 112.499 9.37199 114.033 9.37199C115.695 9.37199 117.693 9.8166 117.767 11.7456L115.083 11.7313Z" fill="#111F6E"/>
<rect x="32" width="27" height="27" rx="2" fill="#2959A2"/>
<path fill-rule="evenodd" clip-rule="evenodd" d="M52.8319 10.3326H52.421C49.4294 10.3326 46.4427 10.3326 43.4512 10.3326C43.0593 10.3326 42.9207 10.2319 42.9351 9.82405C42.959 8.80208 42.9351 7.77531 42.9351 6.75334C42.9351 6.17758 43.1023 6.00006 43.6614 6.00006C45.0951 6.00006 46.5526 6.00006 48.0006 6.00006C48.1893 5.9978 48.3731 6.06045 48.5215 6.17758C49.9217 7.49223 51.3027 8.81648 52.6933 10.1407C52.7364 10.1935 52.7746 10.2415 52.8319 10.3326Z" fill="white"/>
<path fill-rule="evenodd" clip-rule="evenodd" d="M49.0952 21.0126C49.0952 20.835 49.0952 20.7199 49.0952 20.5999C49.0952 17.5916 49.0952 14.5833 49.0952 11.5797C49.0952 11.1719 49.2195 11.0567 49.6161 11.0663C50.6196 11.0951 51.628 11.0663 52.6363 11.0663C53.2193 11.0663 53.3579 11.1959 53.3579 11.762C53.3579 13.2446 53.3579 14.7272 53.3579 16.2098C53.3553 16.4268 53.2795 16.6365 53.1428 16.8047C51.8908 18.153 50.6196 19.482 49.3533 20.8158C49.2721 20.8876 49.1859 20.9533 49.0952 21.0126Z" fill="white"/>
<path fill-rule="evenodd" clip-rule="evenodd" d="M38.4912 17.2896H47.7908C48.3355 17.2896 48.3355 17.2896 48.3355 17.8461C48.3355 18.8393 48.3355 19.8373 48.3355 20.8353C48.3355 21.3774 48.1539 21.555 47.6187 21.5598C46.1421 21.5598 44.6702 21.5598 43.1935 21.5598C43.0193 21.5631 42.8497 21.5035 42.7157 21.3918C41.3489 20.106 39.9918 18.8057 38.6394 17.5055C38.5845 17.4374 38.535 17.3652 38.4912 17.2896Z" fill="white"/>
<path fill-rule="evenodd" clip-rule="evenodd" d="M42.1251 6.62402C42.1251 6.81114 42.1251 6.94069 42.1251 7.07503C42.1251 10.0354 42.1251 13.0005 42.1251 15.9657C42.1251 16.3831 42.0104 16.5175 41.5851 16.5031C40.5672 16.4743 39.5445 16.5031 38.5267 16.5031C38.0153 16.5031 37.8672 16.3495 37.8672 15.8266C37.8672 14.344 37.8672 12.8614 37.8672 11.3836C37.8672 11.1945 37.9293 11.0107 38.044 10.8606C39.3152 9.49801 40.6054 8.14498 41.867 6.79195C41.9489 6.72978 42.0351 6.67366 42.1251 6.62402Z" fill="white"/>
<path d="M140.002 15.4396H135.084V20.1341H133.444V15.4396H128.526V13.8748H133.444V9.18033H135.084V13.8748H140.002V15.4396Z" fill="#323232"/>
</svg>
