<svg width="69" height="59" viewBox="0 0 69 59" fill="none" xmlns="http://www.w3.org/2000/svg">
<path d="M53.0739 0H37.1493V5.25765H53.0739V0ZM42.4575 34.1747H47.7657V18.4018H42.4575V34.1747ZM63.7699 16.7982L67.5387 13.0653C66.3975 11.7246 65.1501 10.4627 63.7965 9.35861L60.0276 13.0915C55.9138 9.8318 50.7383 7.88647 45.1116 7.88647C31.9207 7.88647 21.2247 18.4806 21.2247 31.5459C21.2247 44.6111 31.8942 55.2053 45.1116 55.2053C58.329 55.2053 68.9985 44.6111 68.9985 31.5459C68.9985 25.9728 67.0345 20.8466 63.7699 16.7982ZM45.1116 49.9477C34.8402 49.9477 26.5329 41.7194 26.5329 31.5459C26.5329 21.3723 34.8402 13.1441 45.1116 13.1441C55.383 13.1441 63.6903 21.3723 63.6903 31.5459C63.6903 41.7194 55.383 49.9477 45.1116 49.9477Z" fill="#141414"/>
<line y1="-2" x2="11.847" y2="-2" transform="matrix(-0.896128 0.443797 -0.450644 -0.892704 15.9434 31.5507)" stroke="#141414" stroke-width="4"/>
<line y1="-2" x2="11.847" y2="-2" transform="matrix(-0.896128 0.443797 -0.450644 -0.892704 10.6164 44.6808)" stroke="#141414" stroke-width="4"/>
<line y1="-2" x2="11.847" y2="-2" transform="matrix(-0.896128 0.443797 -0.450644 -0.892704 23.9019 49.9439)" stroke="#141414" stroke-width="4"/>
</svg>
