<svg width="373" height="92" viewBox="0 0 373 92" fill="none" xmlns="http://www.w3.org/2000/svg">
<path d="M73.0389 61.824H87.4086V67.4667H66.0681V24.84H73.0389V61.824ZM93.7272 29.1947C92.4634 29.1947 91.4035 28.7653 90.5475 27.9067C89.6914 27.048 89.2634 25.9849 89.2634 24.7173C89.2634 23.4498 89.6914 22.3867 90.5475 21.528C91.4035 20.6693 92.4634 20.24 93.7272 20.24C94.9501 20.24 95.9896 20.6693 96.8457 21.528C97.7017 22.3867 98.1298 23.4498 98.1298 24.7173C98.1298 25.9849 97.7017 27.048 96.8457 27.9067C95.9896 28.7653 94.9501 29.1947 93.7272 29.1947ZM97.1514 33.672V67.4667H90.1806V33.672H97.1514ZM120.245 33.12C122.895 33.12 125.259 33.672 127.338 34.776C129.458 35.88 131.109 37.5155 132.291 39.6827C133.473 41.8498 134.065 44.4667 134.065 47.5333V67.4667H127.155V48.576C127.155 45.5502 126.401 43.24 124.892 41.6453C123.384 40.0098 121.325 39.192 118.717 39.192C116.108 39.192 114.029 40.0098 112.479 41.6453C110.971 43.24 110.217 45.5502 110.217 48.576V67.4667H103.246V33.672H110.217V37.536C111.358 36.1458 112.806 35.0622 114.558 34.2853C116.352 33.5084 118.248 33.12 120.245 33.12ZM153.229 50.6L168.76 67.4667H159.344L146.87 52.9307V67.4667H139.899V22.08H146.87V48.4533L159.099 33.672H168.76L153.229 50.6ZM228.286 24.84V67.4667H221.315V38.272L208.352 67.4667H203.521L190.497 38.272V67.4667H183.526V24.84H191.047L205.967 58.2667L220.826 24.84H228.286ZM249.005 68.0187C245.825 68.0187 242.951 67.3031 240.383 65.872C237.815 64.4 235.797 62.3555 234.33 59.7387C232.862 57.0809 232.128 54.0142 232.128 50.5387C232.128 47.104 232.882 44.0578 234.391 41.4C235.899 38.7422 237.958 36.6978 240.567 35.2667C243.176 33.8355 246.09 33.12 249.311 33.12C252.531 33.12 255.446 33.8355 258.055 35.2667C260.664 36.6978 262.722 38.7422 264.231 41.4C265.739 44.0578 266.493 47.104 266.493 50.5387C266.493 53.9733 265.719 57.0196 264.17 59.6773C262.621 62.3351 260.501 64.4 257.81 65.872C255.161 67.3031 252.225 68.0187 249.005 68.0187ZM249.005 61.9467C250.799 61.9467 252.47 61.5173 254.019 60.6587C255.609 59.8 256.893 58.512 257.871 56.7947C258.85 55.0773 259.339 52.992 259.339 50.5387C259.339 48.0853 258.87 46.0204 257.933 44.344C256.995 42.6267 255.752 41.3387 254.203 40.48C252.654 39.6213 250.982 39.192 249.188 39.192C247.395 39.192 245.723 39.6213 244.174 40.48C242.666 41.3387 241.463 42.6267 240.567 44.344C239.67 46.0204 239.221 48.0853 239.221 50.5387C239.221 54.1778 240.139 56.9991 241.973 59.0027C243.848 60.9653 246.192 61.9467 249.005 61.9467ZM287.326 33.12C289.976 33.12 292.34 33.672 294.419 34.776C296.539 35.88 298.19 37.5155 299.372 39.6827C300.554 41.8498 301.146 44.4667 301.146 47.5333V67.4667H294.236V48.576C294.236 45.5502 293.482 43.24 291.973 41.6453C290.465 40.0098 288.406 39.192 285.797 39.192C283.189 39.192 281.11 40.0098 279.56 41.6453C278.052 43.24 277.298 45.5502 277.298 48.576V67.4667H270.327V33.672H277.298V37.536C278.439 36.1458 279.887 35.0622 281.639 34.2853C283.433 33.5084 285.329 33.12 287.326 33.12ZM337.859 49.7413C337.859 51.0089 337.777 52.1538 337.614 53.176H311.871C312.075 55.8747 313.073 58.0418 314.867 59.6773C316.661 61.3129 318.862 62.1307 321.471 62.1307C325.221 62.1307 327.871 60.5564 329.42 57.408H336.941C335.922 60.5155 334.067 63.0711 331.377 65.0747C328.727 67.0373 325.425 68.0187 321.471 68.0187C318.251 68.0187 315.356 67.3031 312.788 65.872C310.261 64.4 308.263 62.3555 306.796 59.7387C305.369 57.0809 304.655 54.0142 304.655 50.5387C304.655 47.0631 305.348 44.0169 306.734 41.4C308.161 38.7422 310.138 36.6978 312.666 35.2667C315.234 33.8355 318.169 33.12 321.471 33.12C324.651 33.12 327.484 33.8151 329.971 35.2053C332.457 36.5955 334.393 38.5582 335.779 41.0933C337.165 43.5875 337.859 46.4702 337.859 49.7413ZM330.582 47.5333C330.541 44.9573 329.624 42.8924 327.83 41.3387C326.037 39.7849 323.815 39.008 321.165 39.008C318.76 39.008 316.701 39.7849 314.989 41.3387C313.277 42.8515 312.258 44.9164 311.932 47.5333H330.582ZM371.991 33.672L351.323 83.352H344.108L350.956 66.9147L337.687 33.672H345.453L354.931 59.432L364.776 33.672H371.991Z" fill="black"/>
<path d="M4.68078 29.8004C7.2556 29.8004 9.34292 27.7061 9.34292 25.1226C9.34292 22.5388 7.2556 20.4445 4.68078 20.4445C2.10596 20.4445 0.0186615 22.5388 0.0186615 25.1226C0.0186615 27.7061 2.10596 29.8004 4.68078 29.8004Z" fill="#141414"/>
<path d="M0 50.9134L0.0256479 38.0414C0.0256479 36.8037 0.515682 35.6164 1.38794 34.7412C2.2602 33.866 3.44322 33.3743 4.67679 33.3743C5.91034 33.3743 7.09338 33.866 7.96563 34.7412C8.8379 35.6164 9.32791 36.8037 9.32791 38.0414L9.30225 50.9134C9.30225 53.0991 10.1676 55.1955 11.708 56.7411C13.2484 58.2867 15.3376 59.1552 17.516 59.1552C19.6944 59.1552 21.7836 58.2867 23.3239 56.7411C24.8642 55.1955 25.7297 53.0991 25.7297 50.9134V37.5484C25.7297 36.3107 26.2197 35.1237 27.092 34.2485C27.9642 33.3733 29.1472 32.8816 30.3807 32.8816C31.6143 32.8816 32.7973 33.3733 33.6697 34.2485C34.5418 35.1237 35.0318 36.3107 35.0318 37.5484V50.9134C35.0318 55.5747 33.1864 60.0451 29.9016 63.3414C26.6167 66.6374 22.1615 68.4891 17.516 68.4891C12.8704 68.4891 8.41519 66.6374 5.1303 63.3414C1.84542 60.0451 0 55.5747 0 50.9134Z" fill="#141414"/>
<path d="M43.202 68.4856C45.7769 68.4856 47.8643 66.3913 47.8643 63.8075C47.8643 61.224 45.7769 59.1296 43.202 59.1296C40.6272 59.1296 38.5399 61.224 38.5399 63.8075C38.5399 66.3913 40.6272 68.4856 43.202 68.4856Z" fill="#141414"/>
<path d="M47.8991 38.0201L47.8734 50.8922C47.8734 52.1299 47.3834 53.3171 46.5113 54.1923C45.6389 55.0675 44.4559 55.5592 43.2223 55.5592C41.9888 55.5592 40.8058 55.0675 39.9334 54.1923C39.0613 53.3171 38.5713 52.1299 38.5713 50.8922L38.5969 38.0201C38.5969 35.8344 37.7315 33.738 36.1912 32.1924C34.6507 30.6468 32.5617 29.7786 30.3832 29.7786C28.2047 29.7786 26.1155 30.6468 24.5752 32.1924C23.0349 33.738 22.1695 35.8344 22.1695 38.0201V51.3851C22.1695 52.6228 21.6795 53.8098 20.8073 54.685C19.9349 55.5602 18.7519 56.0519 17.5183 56.0519C16.2848 56.0519 15.1018 55.5602 14.2295 54.685C13.3572 53.8098 12.8672 52.6228 12.8672 51.3851V38.0201C12.8672 33.3588 14.7126 28.8884 17.9975 25.5924C21.2824 22.2961 25.7376 20.4445 30.3832 20.4445C35.0288 20.4445 39.484 22.2961 42.7688 25.5924C46.0537 28.8884 47.8991 33.3588 47.8991 38.0201Z" fill="#141414"/>
</svg>
