<svg width="108" height="35" viewBox="0 0 108 35" fill="none" xmlns="http://www.w3.org/2000/svg">
<path d="M21.1473 18.1439H25.3079V19.7999H19.1289V7.28994H21.1473V18.1439ZM27.1374 8.56794C26.7715 8.56794 26.4646 8.44194 26.2168 8.18994C25.9689 7.93794 25.845 7.62594 25.845 7.25394C25.845 6.88194 25.9689 6.56994 26.2168 6.31794C26.4646 6.06594 26.7715 5.93994 27.1374 5.93994C27.4915 5.93994 27.7925 6.06594 28.0404 6.31794C28.2882 6.56994 28.4122 6.88194 28.4122 7.25394C28.4122 7.62594 28.2882 7.93794 28.0404 8.18994C27.7925 8.44194 27.4915 8.56794 27.1374 8.56794ZM28.1289 9.88194V19.7999H26.1105V9.88194H28.1289ZM34.8156 9.71994C35.5828 9.71994 36.2674 9.88194 36.8694 10.2059C37.4831 10.5299 37.9612 11.0099 38.3034 11.6459C38.6457 12.2819 38.8169 13.0499 38.8169 13.9499V19.7999H36.8162V14.2559C36.8162 13.3679 36.5979 12.6899 36.1612 12.2219C35.7244 11.7419 35.1284 11.5019 34.373 11.5019C33.6175 11.5019 33.0156 11.7419 32.5671 12.2219C32.1303 12.6899 31.912 13.3679 31.912 14.2559V19.7999H29.8936V9.88194H31.912V11.0159C32.2425 10.6079 32.6615 10.2899 33.169 10.0619C33.6884 9.83394 34.2372 9.71994 34.8156 9.71994ZM44.3658 14.8499L48.8629 19.7999H46.1363L42.5245 15.5339V19.7999H40.5062V6.47994H42.5245V14.2199L46.0655 9.88194H48.8629L44.3658 14.8499ZM66.0982 7.28994V19.7999H64.0799V11.2319L60.3264 19.7999H58.9277L55.1566 11.2319V19.7999H53.1382V7.28994H55.3159L59.6359 17.0999L63.9382 7.28994H66.0982ZM72.0972 19.9619C71.1766 19.9619 70.3445 19.7519 69.6008 19.3319C68.8572 18.8999 68.273 18.2999 67.8481 17.5319C67.4231 16.7519 67.2107 15.8519 67.2107 14.8319C67.2107 13.8239 67.429 12.9299 67.8658 12.1499C68.3025 11.3699 68.8986 10.7699 69.654 10.3499C70.4094 9.92994 71.2533 9.71994 72.1858 9.71994C73.1182 9.71994 73.9622 9.92994 74.7176 10.3499C75.473 10.7699 76.069 11.3699 76.5058 12.1499C76.9425 12.9299 77.1609 13.8239 77.1609 14.8319C77.1609 15.8399 76.9366 16.7339 76.4881 17.5139C76.0395 18.2939 75.4258 18.8999 74.6468 19.3319C73.8795 19.7519 73.0297 19.9619 72.0972 19.9619ZM72.0972 18.1799C72.6166 18.1799 73.1005 18.0539 73.549 17.8019C74.0094 17.5499 74.3812 17.1719 74.6645 16.6679C74.9477 16.1639 75.0894 15.5519 75.0894 14.8319C75.0894 14.1119 74.9536 13.5059 74.6822 13.0139C74.4107 12.5099 74.0507 12.1319 73.6022 11.8799C73.1536 11.6279 72.6697 11.5019 72.1504 11.5019C71.631 11.5019 71.1471 11.6279 70.6986 11.8799C70.2618 12.1319 69.9136 12.5099 69.654 13.0139C69.3943 13.5059 69.2645 14.1119 69.2645 14.8319C69.2645 15.8999 69.53 16.7279 70.0612 17.3159C70.6041 17.8919 71.2828 18.1799 72.0972 18.1799ZM83.1929 9.71994C83.9601 9.71994 84.6447 9.88194 85.2467 10.2059C85.8605 10.5299 86.3385 11.0099 86.6808 11.6459C87.0231 12.2819 87.1942 13.0499 87.1942 13.9499V19.7999H85.1936V14.2559C85.1936 13.3679 84.9752 12.6899 84.5385 12.2219C84.1018 11.7419 83.5057 11.5019 82.7503 11.5019C81.9949 11.5019 81.3929 11.7419 80.9444 12.2219C80.5077 12.6899 80.2893 13.3679 80.2893 14.2559V19.7999H78.2709V9.88194H80.2893V11.0159C80.6198 10.6079 81.0388 10.2899 81.5464 10.0619C82.0657 9.83394 82.6145 9.71994 83.1929 9.71994ZM97.8243 14.5979C97.8243 14.9699 97.8007 15.3059 97.7534 15.6059H90.2997C90.3587 16.3979 90.6479 17.0339 91.1672 17.5139C91.6866 17.9939 92.3239 18.2339 93.0793 18.2339C94.1652 18.2339 94.9324 17.7719 95.381 16.8479H97.5587C97.2636 17.7599 96.7265 18.5099 95.9475 19.0979C95.1803 19.6739 94.2243 19.9619 93.0793 19.9619C92.1469 19.9619 91.3088 19.7519 90.5652 19.3319C89.8334 18.8999 89.2551 18.2999 88.8302 17.5319C88.417 16.7519 88.2105 15.8519 88.2105 14.8319C88.2105 13.8119 88.4111 12.9179 88.8125 12.1499C89.2256 11.3699 89.798 10.7699 90.5298 10.3499C91.2734 9.92994 92.1233 9.71994 93.0793 9.71994C94 9.71994 94.8203 9.92394 95.5403 10.3319C96.2603 10.7399 96.821 11.3159 97.2223 12.0599C97.6236 12.7919 97.8243 13.6379 97.8243 14.5979ZM95.7174 13.9499C95.7056 13.1939 95.44 12.5879 94.9206 12.1319C94.4013 11.6759 93.758 11.4479 92.9908 11.4479C92.2944 11.4479 91.6984 11.6759 91.2026 12.1319C90.7069 12.5759 90.4118 13.1819 90.3174 13.9499H95.7174ZM107.707 9.88194L101.723 24.4619H99.6337L101.617 19.6379L97.7747 9.88194H100.023L102.767 17.4419L105.618 9.88194H107.707Z" fill="black"/>
<path d="M1.35575 8.74578C2.10127 8.74578 2.70564 8.13114 2.70564 7.37292C2.70564 6.61464 2.10127 6 1.35575 6C0.610225 6 0.00585938 6.61464 0.00585938 7.37292C0.00585938 8.13114 0.610225 8.74578 1.35575 8.74578Z" fill="#141414"/>
<path d="M0 14.9418L0.00742621 11.1642C0.00742621 10.8009 0.149313 10.4525 0.401869 10.1957C0.654427 9.9388 0.996964 9.7945 1.35414 9.7945C1.7113 9.7945 2.05385 9.9388 2.3064 10.1957C2.55896 10.4525 2.70084 10.8009 2.70084 11.1642L2.69341 14.9418C2.69341 15.5833 2.94398 16.1985 3.38998 16.6521C3.83599 17.1057 4.4409 17.3606 5.07164 17.3606C5.70239 17.3606 6.30732 17.1057 6.7533 16.6521C7.19929 16.1985 7.44988 15.5833 7.44988 14.9418V11.0195C7.44988 10.6563 7.59175 10.3079 7.84434 10.0511C8.09687 9.7942 8.4394 9.6499 8.79657 9.6499C9.15374 9.6499 9.49627 9.7942 9.74886 10.0511C10.0014 10.3079 10.1433 10.6563 10.1433 11.0195V14.9418C10.1433 16.3098 9.60893 17.6218 8.65782 18.5892C7.70672 19.5565 6.41673 20.0999 5.07164 20.0999C3.72656 20.0999 2.43657 19.5565 1.48545 18.5892C0.53433 17.6218 0 16.3098 0 14.9418Z" fill="#141414"/>
<path d="M12.5081 20.0988C13.2536 20.0988 13.858 19.4842 13.858 18.7259C13.858 17.9677 13.2536 17.353 12.5081 17.353C11.7626 17.353 11.1582 17.9677 11.1582 18.7259C11.1582 19.4842 11.7626 20.0988 12.5081 20.0988Z" fill="#141414"/>
<path d="M13.8698 11.1581L13.8624 14.9357C13.8624 15.299 13.7205 15.6474 13.468 15.9043C13.2154 16.1611 12.8729 16.3054 12.5157 16.3054C12.1585 16.3054 11.816 16.1611 11.5634 15.9043C11.3109 15.6474 11.169 15.299 11.169 14.9357L11.1765 11.1581C11.1765 10.5166 10.9259 9.90138 10.4799 9.44778C10.0338 8.99418 9.42898 8.73936 8.79821 8.73936C8.16745 8.73936 7.56253 8.99418 7.11654 9.44778C6.67055 9.90138 6.41997 10.5166 6.41997 11.1581V15.0804C6.41997 15.4436 6.27809 15.792 6.02556 16.0489C5.77298 16.3057 5.43044 16.45 5.07327 16.45C4.7161 16.45 4.37356 16.3057 4.121 16.0489C3.86844 15.792 3.72656 15.4436 3.72656 15.0804V11.1581C3.72656 9.79008 4.26089 8.47812 5.21201 7.5108C6.16313 6.54342 7.45311 6 8.79821 6C10.1433 6 11.4333 6.54342 12.3844 7.5108C13.3355 8.47812 13.8698 9.79008 13.8698 11.1581Z" fill="#141414"/>
<path d="M4.344 28.056C4.344 28.52 4.184 28.9067 3.864 29.216C3.54933 29.52 3.06667 29.672 2.416 29.672H1.344V32H0.616V26.424H2.416C3.04533 26.424 3.52267 26.576 3.848 26.88C4.17867 27.184 4.344 27.576 4.344 28.056ZM2.416 29.072C2.82133 29.072 3.12 28.984 3.312 28.808C3.504 28.632 3.6 28.3813 3.6 28.056C3.6 27.368 3.20533 27.024 2.416 27.024H1.344V29.072H2.416ZM4.97681 29.792C4.97681 29.344 5.06748 28.952 5.24881 28.616C5.43015 28.2747 5.67815 28.0107 5.99281 27.824C6.31281 27.6373 6.66748 27.544 7.05681 27.544C7.44081 27.544 7.77415 27.6267 8.05681 27.792C8.33948 27.9573 8.55015 28.1653 8.68881 28.416V27.616H9.42481V32H8.68881V31.184C8.54481 31.44 8.32881 31.6533 8.04081 31.824C7.75815 31.9893 7.42748 32.072 7.04881 32.072C6.65948 32.072 6.30748 31.976 5.99281 31.784C5.67815 31.592 5.43015 31.3227 5.24881 30.976C5.06748 30.6293 4.97681 30.2347 4.97681 29.792ZM8.68881 29.8C8.68881 29.4693 8.62215 29.1813 8.48881 28.936C8.35548 28.6907 8.17415 28.504 7.94481 28.376C7.72081 28.2427 7.47281 28.176 7.20081 28.176C6.92881 28.176 6.68081 28.24 6.45681 28.368C6.23281 28.496 6.05415 28.6827 5.92081 28.928C5.78748 29.1733 5.72081 29.4613 5.72081 29.792C5.72081 30.128 5.78748 30.4213 5.92081 30.672C6.05415 30.9173 6.23281 31.1067 6.45681 31.24C6.68081 31.368 6.92881 31.432 7.20081 31.432C7.47281 31.432 7.72081 31.368 7.94481 31.24C8.17415 31.1067 8.35548 30.9173 8.48881 30.672C8.62215 30.4213 8.68881 30.1307 8.68881 29.8ZM14.4311 27.616L11.7911 34.064H11.0391L11.9031 31.952L10.1351 27.616H10.9431L12.3191 31.168L13.6791 27.616H14.4311ZM18.0237 28.432C18.173 28.1707 18.3917 27.9573 18.6797 27.792C18.9677 27.6267 19.2957 27.544 19.6637 27.544C20.0584 27.544 20.413 27.6373 20.7277 27.824C21.0424 28.0107 21.2904 28.2747 21.4717 28.616C21.653 28.952 21.7437 29.344 21.7437 29.792C21.7437 30.2347 21.653 30.6293 21.4717 30.976C21.2904 31.3227 21.0397 31.592 20.7197 31.784C20.405 31.976 20.053 32.072 19.6637 32.072C19.285 32.072 18.9517 31.9893 18.6637 31.824C18.381 31.6587 18.1677 31.448 18.0237 31.192V32H17.2957V26.08H18.0237V28.432ZM20.9997 29.792C20.9997 29.4613 20.933 29.1733 20.7997 28.928C20.6664 28.6827 20.485 28.496 20.2557 28.368C20.0317 28.24 19.7837 28.176 19.5117 28.176C19.245 28.176 18.997 28.2427 18.7677 28.376C18.5437 28.504 18.3624 28.6933 18.2237 28.944C18.0904 29.1893 18.0237 29.4747 18.0237 29.8C18.0237 30.1307 18.0904 30.4213 18.2237 30.672C18.3624 30.9173 18.5437 31.1067 18.7677 31.24C18.997 31.368 19.245 31.432 19.5117 31.432C19.7837 31.432 20.0317 31.368 20.2557 31.24C20.485 31.1067 20.6664 30.9173 20.7997 30.672C20.933 30.4213 20.9997 30.128 20.9997 29.792ZM26.4779 27.616L23.8379 34.064H23.0859L23.9499 31.952L22.1819 27.616H22.9899L24.3659 31.168L25.7259 27.616H26.4779ZM32.1346 29.128C32.3372 29.16 32.5212 29.2427 32.6866 29.376C32.8572 29.5093 32.9906 29.6747 33.0866 29.872C33.1879 30.0693 33.2386 30.28 33.2386 30.504C33.2386 30.7867 33.1666 31.0427 33.0226 31.272C32.8786 31.496 32.6679 31.6747 32.3906 31.808C32.1186 31.936 31.7959 32 31.4226 32H29.3426V26.424H31.3426C31.7212 26.424 32.0439 26.488 32.3106 26.616C32.5772 26.7387 32.7772 26.9067 32.9106 27.12C33.0439 27.3333 33.1106 27.5733 33.1106 27.84C33.1106 28.1707 33.0199 28.4453 32.8386 28.664C32.6626 28.8773 32.4279 29.032 32.1346 29.128ZM30.0706 28.832H31.2946C31.6359 28.832 31.8999 28.752 32.0866 28.592C32.2732 28.432 32.3666 28.2107 32.3666 27.928C32.3666 27.6453 32.2732 27.424 32.0866 27.264C31.8999 27.104 31.6306 27.024 31.2786 27.024H30.0706V28.832ZM31.3586 31.4C31.7212 31.4 32.0039 31.3147 32.2066 31.144C32.4092 30.9733 32.5106 30.736 32.5106 30.432C32.5106 30.1227 32.4039 29.88 32.1906 29.704C31.9772 29.5227 31.6919 29.432 31.3346 29.432H30.0706V31.4H31.3586ZM33.9768 29.792C33.9768 29.344 34.0675 28.952 34.2488 28.616C34.4301 28.2747 34.6781 28.0107 34.9928 27.824C35.3128 27.6373 35.6675 27.544 36.0568 27.544C36.4408 27.544 36.7741 27.6267 37.0568 27.792C37.3395 27.9573 37.5501 28.1653 37.6888 28.416V27.616H38.4248V32H37.6888V31.184C37.5448 31.44 37.3288 31.6533 37.0408 31.824C36.7581 31.9893 36.4275 32.072 36.0488 32.072C35.6595 32.072 35.3075 31.976 34.9928 31.784C34.6781 31.592 34.4301 31.3227 34.2488 30.976C34.0675 30.6293 33.9768 30.2347 33.9768 29.792ZM37.6888 29.8C37.6888 29.4693 37.6221 29.1813 37.4888 28.936C37.3555 28.6907 37.1741 28.504 36.9448 28.376C36.7208 28.2427 36.4728 28.176 36.2008 28.176C35.9288 28.176 35.6808 28.24 35.4568 28.368C35.2328 28.496 35.0541 28.6827 34.9208 28.928C34.7875 29.1733 34.7208 29.4613 34.7208 29.792C34.7208 30.128 34.7875 30.4213 34.9208 30.672C35.0541 30.9173 35.2328 31.1067 35.4568 31.24C35.6808 31.368 35.9288 31.432 36.2008 31.432C36.4728 31.432 36.7208 31.368 36.9448 31.24C37.1741 31.1067 37.3555 30.9173 37.4888 30.672C37.6221 30.4213 37.6888 30.1307 37.6888 29.8ZM41.7911 27.536C42.3244 27.536 42.7564 27.6987 43.0871 28.024C43.4177 28.344 43.5831 28.808 43.5831 29.416V32H42.8631V29.52C42.8631 29.0827 42.7537 28.7493 42.5351 28.52C42.3164 28.2853 42.0177 28.168 41.6391 28.168C41.2551 28.168 40.9484 28.288 40.7191 28.528C40.4951 28.768 40.3831 29.1173 40.3831 29.576V32H39.6551V27.616H40.3831V28.24C40.5271 28.016 40.7217 27.8427 40.9671 27.72C41.2177 27.5973 41.4924 27.536 41.7911 27.536ZM47.2203 32L45.5003 30.064V32H44.7723V26.08H45.5003V29.56L47.1883 27.616H48.2043L46.1403 29.8L48.2123 32H47.2203Z" fill="black"/>
<path d="M99.4286 29.8701H97.9592V31.2727H97.4694V29.8701H96V29.4026H97.4694V28H97.9592V29.4026H99.4286V29.8701Z" fill="#323232"/>
<g clip-path="url(#clip0_524_3406)">
<path d="M84.666 25.75C84.666 25.3358 85.0142 25 85.4438 25H93.2216C93.6513 25 93.9993 25.3358 93.9993 25.75V33.25C93.9993 33.6642 93.6513 34 93.2216 34H85.4438C85.0142 34 84.666 33.6642 84.666 33.25V25.75Z" fill="#101F6D"/>
<path d="M86.6113 27.7173V31.0108L89.528 31.9584L92.4447 31.0108V27.7173H86.6113Z" fill="white"/>
<path d="M89.5273 30.8933H88.6208V30.6032C88.5289 30.7217 88.407 30.816 88.2666 30.8772C88.1263 30.9385 87.972 30.9648 87.8182 30.9536C87.7045 30.9621 87.5902 30.9477 87.4827 30.9114C87.3752 30.875 87.2769 30.8176 87.194 30.7427C87.1136 30.6699 87.051 30.5811 87.0106 30.4825C86.9703 30.3839 86.9533 30.278 86.9607 30.1724V28.6099H87.894V29.8097C87.894 30.0741 87.929 30.2561 88.2043 30.2561C88.3653 30.2561 88.5788 30.1813 88.5788 29.8163V28.6099H89.5273V30.8933Z" fill="#101F6D"/>
<path d="M91.1959 29.2324C91.1936 29.1972 91.1827 29.1629 91.164 29.1325C91.1454 29.102 91.1197 29.0762 91.0886 29.0572C91.0283 29.0098 90.9517 28.9852 90.8738 28.988C90.742 28.988 90.5938 29.0159 90.5938 29.1711C90.5938 29.2369 90.6498 29.2681 90.7012 29.2905C90.8563 29.3541 91.2064 29.373 91.5179 29.4724C91.8294 29.5717 92.1013 29.7414 92.1013 30.1264C92.1013 30.7759 91.4561 30.9534 90.8656 30.9534C90.2753 30.9534 89.6617 30.7302 89.6465 30.1264H90.5401C90.5436 30.1666 90.5558 30.2058 90.5759 30.2413C90.596 30.2769 90.6235 30.308 90.6568 30.3329C90.7289 30.3832 90.8174 30.4074 90.9066 30.4009C91.0291 30.4009 91.2204 30.3563 91.2204 30.219C91.2204 30.0817 91.1411 30.0438 90.7081 29.9735C90.0011 29.8552 89.7153 29.6387 89.7153 29.2369C89.7153 28.6476 90.378 28.498 90.8633 28.498C91.3896 28.498 92.0219 28.6364 92.0453 29.2369L91.1959 29.2324Z" fill="#101F6D"/>
<path d="M60.5556 25H52.7778C52.3482 25 52 25.3358 52 25.75V33.25C52 33.6642 52.3482 34 52.7778 34H60.5556C60.9851 34 61.3333 33.6642 61.3333 33.25V25.75C61.3333 25.3358 60.9851 25 60.5556 25Z" fill="#E21737"/>
<path fill-rule="evenodd" clip-rule="evenodd" d="M56.6453 31.4632C57.7582 30.5036 59.2958 29.5848 60.1659 29.2377C60.0243 29.156 59.822 29.0335 59.5995 28.8906C58.5068 29.2581 57.2119 30.0748 56.0586 30.9936C56.261 31.1569 56.4634 31.2999 56.6453 31.4632Z" fill="white"/>
<path fill-rule="evenodd" clip-rule="evenodd" d="M56.1401 28.8706C55.9784 28.789 55.7962 28.7073 55.6545 28.646C55.2297 28.8502 54.7037 29.1769 54.0156 29.6669C54.1573 29.7485 54.3193 29.8507 54.481 29.9323C55.0274 29.5444 55.5534 29.1769 56.1401 28.8706Z" fill="white"/>
<path fill-rule="evenodd" clip-rule="evenodd" d="M57.1329 28.4006C56.9306 28.2986 56.2427 28.0331 55.7571 27.9106C55.6155 27.9718 55.413 28.0535 55.2715 28.0944C55.4536 28.1352 56.1011 28.319 56.6475 28.6048C56.789 28.5436 56.9913 28.4619 57.1329 28.4006Z" fill="white"/>
<path fill-rule="evenodd" clip-rule="evenodd" d="M54.7846 28.3394C54.1776 28.6252 53.5301 29.0131 53.166 29.2581C53.2874 29.3193 53.4087 29.3603 53.5909 29.4419C54.3799 28.911 54.9869 28.5844 55.2298 28.4822C55.0476 28.421 54.8857 28.3802 54.7846 28.3394Z" fill="white"/>
<path fill-rule="evenodd" clip-rule="evenodd" d="M57.5972 28.2375C57.7388 28.1967 57.9007 28.1558 58.0424 28.0946C57.6378 27.9108 57.1116 27.727 56.6462 27.625C56.5654 27.6454 56.3427 27.7067 56.2012 27.7475C56.3631 27.8087 56.8891 27.9313 57.5972 28.2375Z" fill="white"/>
<path fill-rule="evenodd" clip-rule="evenodd" d="M55.0059 30.2386C55.1676 30.3407 55.3497 30.4836 55.5319 30.5857C56.6852 29.6873 57.8183 28.9932 59.0726 28.5848C58.8904 28.5031 58.7489 28.4215 58.5466 28.3193C57.7777 28.5236 56.5031 29.0544 55.0059 30.2386Z" fill="white"/>
<mask id="mask0_524_3406" style="mask-type:luminance" maskUnits="userSpaceOnUse" x="73" y="25" width="11" height="9">
<path d="M82.3329 25H74.5551C74.1256 25 73.7773 25.3358 73.7773 25.75V33.25C73.7773 33.6642 74.1256 34 74.5551 34H82.3329C82.7625 34 83.1107 33.6642 83.1107 33.25V25.75C83.1107 25.3358 82.7625 25 82.3329 25Z" fill="white"/>
</mask>
<g mask="url(#mask0_524_3406)">
<path d="M83.1107 25H73.7773V34H83.1107V25Z" fill="white"/>
<path d="M73.7773 28.9375V32.875H78.444H83.1107V28.9375V25H78.444H73.7773V28.9375ZM76.3926 27.9859C76.378 28.1547 76.3683 28.1641 76.1982 28.1781C76.0961 28.1875 76.0135 28.2062 76.0135 28.2203C76.0135 28.2484 76.2128 28.9516 76.3926 29.5469L76.4704 29.8047L76.553 29.5234C76.6016 29.3688 76.7329 28.9187 76.8447 28.525L77.044 27.8125H77.3503C77.603 27.8125 77.6662 27.8266 77.6857 27.8922C77.8364 28.3703 78.201 29.6641 78.201 29.7156C78.201 29.7531 78.2155 29.7812 78.2398 29.7812C78.2593 29.7812 78.3711 29.425 78.4926 28.9844L78.7162 28.1922L78.5169 28.1781C78.3322 28.1641 78.3225 28.1594 78.3079 27.9859L78.2933 27.8125H80.1162H81.944V28.2859V28.7547L81.7885 28.7406C81.6572 28.7266 81.628 28.7031 81.5891 28.5625C81.5648 28.4734 81.5016 28.3516 81.4433 28.2906C81.3558 28.1969 81.2975 28.1875 80.8891 28.1875H80.4371V28.6328V29.0781H80.8746H81.3121V29.2656V29.4531H80.8746H80.4371V29.8656V30.2781L80.6315 30.2594L80.826 30.2406V30.4328V30.625H80.1162H79.4114L79.426 30.4469C79.4405 30.2875 79.4503 30.2734 79.601 30.2688H79.7614L79.7711 29.2281L79.7808 28.1875H79.4794H79.178L79.1246 28.3609C79.0954 28.4594 78.935 29.0031 78.7648 29.5703L78.4635 30.6016H78.1523H77.8412L77.569 29.6547C77.4183 29.1344 77.2871 28.6984 77.2773 28.6844C77.2628 28.675 77.1218 29.1062 76.9662 29.6453L76.6746 30.625H76.3683H76.0621L76.0086 30.4234C75.9794 30.3156 75.8239 29.7719 75.6586 29.2188L75.3572 28.2109L75.1871 28.1875C75.0315 28.1641 75.0169 28.15 75.0023 27.9859L74.9878 27.8125H75.6975H76.4072L76.3926 27.9859Z" fill="#D71E28"/>
<path d="M83.1107 32.875H73.7773V34H83.1107V32.875Z" fill="#FFCD41"/>
</g>
<path d="M71.4442 25H63.6664C63.2369 25 62.8887 25.3358 62.8887 25.75V33.25C62.8887 33.6642 63.2369 34 63.6664 34H71.4442C71.8738 34 72.222 33.6642 72.222 33.25V25.75C72.222 25.3358 71.8738 25 71.4442 25Z" fill="#2959A2"/>
<path fill-rule="evenodd" clip-rule="evenodd" d="M69.7296 28.5085H69.6058C68.7047 28.5085 67.805 28.5085 66.9038 28.5085C66.7858 28.5085 66.744 28.4793 66.7484 28.3608C66.7555 28.0639 66.7484 27.7657 66.7484 27.4688C66.7484 27.3016 66.7987 27.25 66.9671 27.25C67.399 27.25 67.8381 27.25 68.2742 27.25C68.3311 27.2494 68.3865 27.2676 68.4312 27.3016C68.8529 27.6835 69.269 28.0681 69.6878 28.4528C69.7008 28.4681 69.7123 28.482 69.7296 28.5085Z" fill="white"/>
<path fill-rule="evenodd" clip-rule="evenodd" d="M68.6055 31.611C68.6055 31.5594 68.6055 31.526 68.6055 31.4911C68.6055 30.6173 68.6055 29.7434 68.6055 28.871C68.6055 28.7525 68.6429 28.7191 68.7624 28.7218C69.0647 28.7302 69.3684 28.7218 69.6722 28.7218C69.8478 28.7218 69.8895 28.7595 69.8895 28.9239C69.8895 29.3546 69.8895 29.7852 69.8895 30.2159C69.8888 30.2789 69.8659 30.3398 69.8248 30.3887C69.4476 30.7803 69.0647 31.1664 68.6832 31.5538C68.6587 31.5747 68.6328 31.5938 68.6055 31.611Z" fill="white"/>
<path fill-rule="evenodd" clip-rule="evenodd" d="M65.4082 30.5293H68.2095C68.3736 30.5293 68.3736 30.5293 68.3736 30.691C68.3736 30.9795 68.3736 31.2694 68.3736 31.5592C68.3736 31.7167 68.3189 31.7683 68.1577 31.7697C67.7129 31.7697 67.2695 31.7697 66.8247 31.7697C66.7722 31.7707 66.7211 31.7534 66.6807 31.7209C66.269 31.3474 65.8602 30.9697 65.4528 30.592C65.4363 30.5722 65.4214 30.5513 65.4082 30.5293Z" fill="white"/>
<path fill-rule="evenodd" clip-rule="evenodd" d="M66.5053 27.4312C66.5053 27.4855 66.5053 27.5231 66.5053 27.5622C66.5053 28.4221 66.5053 29.2834 66.5053 30.1447C66.5053 30.2659 66.4707 30.305 66.3426 30.3008C66.036 30.2924 65.7279 30.3008 65.4213 30.3008C65.2673 30.3008 65.2227 30.2562 65.2227 30.1043C65.2227 29.6736 65.2227 29.243 65.2227 28.8137C65.2227 28.7588 65.2414 28.7054 65.2759 28.6618C65.6588 28.266 66.0475 27.873 66.4276 27.4799C66.4522 27.4619 66.4782 27.4456 66.5053 27.4312Z" fill="white"/>
</g>
<defs>
<clipPath id="clip0_524_3406">
<rect width="42" height="9" fill="white" transform="translate(52 25)"/>
</clipPath>
</defs>
</svg>
