<svg width="44" height="57" viewBox="0 0 44 57" fill="none" xmlns="http://www.w3.org/2000/svg">
<path d="M38 19.3333H35.3333V14C35.3333 6.63999 29.36 0.666656 22 0.666656C14.64 0.666656 8.66666 6.63999 8.66666 14V19.3333H5.99999C3.06666 19.3333 0.666656 21.7333 0.666656 24.6667V51.3333C0.666656 54.2667 3.06666 56.6667 5.99999 56.6667H38C40.9333 56.6667 43.3333 54.2667 43.3333 51.3333V24.6667C43.3333 21.7333 40.9333 19.3333 38 19.3333ZM22 43.3333C19.0667 43.3333 16.6667 40.9333 16.6667 38C16.6667 35.0667 19.0667 32.6667 22 32.6667C24.9333 32.6667 27.3333 35.0667 27.3333 38C27.3333 40.9333 24.9333 43.3333 22 43.3333ZM30.2667 19.3333H13.7333V14C13.7333 9.43999 17.44 5.73332 22 5.73332C26.56 5.73332 30.2667 9.43999 30.2667 14V19.3333Z" fill="#141414"/>
</svg>
