<svg width="48" height="47" viewBox="0 0 48 47" fill="none" xmlns="http://www.w3.org/2000/svg">
<path d="M24 0C10.752 0 0 10.528 0 23.5C0 36.472 10.752 47 24 47C37.248 47 48 36.472 48 23.5C48 10.528 37.248 0 24 0ZM27.384 37.8115V42.3H20.976V37.7645C16.872 36.9185 13.392 34.3335 13.128 29.7745H17.832C18.072 32.242 19.8 34.169 24.192 34.169C28.896 34.169 29.952 31.866 29.952 30.4325C29.952 28.482 28.896 26.649 23.544 25.4035C17.592 23.9935 13.512 21.5965 13.512 16.779C13.512 12.737 16.848 10.105 20.976 9.2355V4.7H27.384V9.2825C31.848 10.34 34.08 13.6535 34.224 17.249H29.52C29.4 14.6405 27.984 12.8545 24.192 12.8545C20.592 12.8545 18.432 14.4525 18.432 16.7085C18.432 18.6825 19.992 19.975 24.84 21.197C29.688 22.419 34.872 24.4635 34.872 30.3855C34.848 34.686 31.56 37.036 27.384 37.8115Z" fill="#141414"/>
</svg>
