<svg xmlns="http://www.w3.org/2000/svg" role="img" viewBox="0 0 128 32" width="128" height="32">
<title>LinkPay</title>
<g>
	<path fill="#010101" d="M32.2,12.2c0,0.6-0.1,1.1-0.4,1.7c-0.3,0.5-0.7,0.9-1.3,1.3c-0.6,0.3-1.4,0.5-2.3,0.5H26v4.7h-1.9V8.7h4
		c0.9,0,1.6,0.2,2.2,0.5c0.6,0.3,1.1,0.7,1.4,1.2C32.1,11,32.2,11.5,32.2,12.2z M28.1,14.1c0.7,0,1.3-0.2,1.6-0.5
		c0.4-0.3,0.5-0.8,0.5-1.4c0-1.3-0.7-1.9-2.1-1.9H26v3.8H28.1z M33.1,15.7c0-0.9,0.2-1.7,0.6-2.4c0.4-0.7,0.9-1.3,1.6-1.6
		c0.7-0.4,1.4-0.6,2.2-0.6c0.7,0,1.3,0.1,1.9,0.4c0.5,0.3,1,0.6,1.3,1v-1.3h1.9v9.2h-1.9V19c-0.3,0.4-0.8,0.8-1.3,1.1
		c-0.6,0.3-1.2,0.4-1.9,0.4c-0.8,0-1.5-0.2-2.2-0.6c-0.7-0.4-1.2-1-1.6-1.7C33.2,17.4,33.1,16.6,33.1,15.7z M40.6,15.7
		c0-0.6-0.1-1.2-0.4-1.6c-0.3-0.5-0.6-0.8-1-1.1c-0.4-0.2-0.9-0.4-1.4-0.4c-0.5,0-0.9,0.1-1.4,0.4c-0.4,0.2-0.8,0.6-1,1
		c-0.3,0.5-0.4,1-0.4,1.6s0.1,1.2,0.4,1.7c0.3,0.5,0.6,0.8,1,1.1c0.4,0.2,0.9,0.4,1.4,0.4c0.5,0,0.9-0.1,1.4-0.4
		c0.4-0.2,0.8-0.6,1-1.1C40.4,16.9,40.6,16.4,40.6,15.7z M52.9,11.1l-5.6,13.5h-2l1.9-4.5l-3.6-9h2.1l2.6,7l2.7-7H52.9z M59.9,12.5
		c0.3-0.4,0.8-0.8,1.3-1.1c0.6-0.3,1.2-0.4,1.9-0.4c0.8,0,1.5,0.2,2.2,0.6c0.7,0.4,1.2,0.9,1.5,1.7c0.4,0.7,0.6,1.5,0.6,2.4
		c0,0.9-0.2,1.7-0.6,2.5c-0.4,0.7-0.9,1.3-1.6,1.7c-0.7,0.4-1.4,0.6-2.2,0.6c-0.7,0-1.3-0.1-1.9-0.4c-0.5-0.3-1-0.6-1.3-1.1v1.3H58
		V8h1.9V12.5z M65.5,15.7c0-0.6-0.1-1.2-0.4-1.6c-0.3-0.5-0.6-0.8-1-1c-0.4-0.2-0.9-0.4-1.4-0.4c-0.5,0-0.9,0.1-1.4,0.4
		c-0.4,0.2-0.8,0.6-1,1.1c-0.3,0.5-0.4,1-0.4,1.6s0.1,1.2,0.4,1.7c0.3,0.5,0.6,0.8,1,1.1c0.4,0.2,0.9,0.4,1.4,0.4
		c0.5,0,0.9-0.1,1.4-0.4c0.4-0.3,0.8-0.6,1-1.1C65.4,16.9,65.5,16.3,65.5,15.7z M77.2,11.1l-5.6,13.5h-2l1.9-4.5l-3.6-9H70l2.6,7
		l2.7-7H77.2z M88.5,14.4c0.6,0.1,1.1,0.4,1.6,1s0.6,1.2,0.6,1.8c0,0.6-0.2,1.1-0.5,1.6c-0.3,0.5-0.7,0.8-1.3,1.1
		c-0.6,0.3-1.2,0.4-2,0.4h-4.6V8.7h4.4c0.8,0,1.5,0.1,2,0.4c0.6,0.3,1,0.6,1.3,1.1c0.3,0.4,0.4,0.9,0.4,1.5c0,0.7-0.2,1.2-0.5,1.7
		C89.6,13.8,89.1,14.2,88.5,14.4z M84.2,13.6h2.3c0.6,0,1.1-0.1,1.4-0.4c0.4-0.3,0.5-0.7,0.5-1.2c0-0.5-0.2-0.9-0.5-1.2
		c-0.3-0.3-0.8-0.4-1.4-0.4h-2.3V13.6z M86.8,18.8c0.6,0,1.1-0.2,1.5-0.5c0.4-0.3,0.5-0.7,0.5-1.3c0-0.6-0.2-1-0.6-1.3
		c-0.4-0.3-0.9-0.5-1.5-0.5h-2.5v3.6H86.8z M91.9,15.7c0-0.9,0.2-1.7,0.6-2.4c0.4-0.7,0.9-1.3,1.6-1.6c0.7-0.4,1.4-0.6,2.2-0.6
		c0.7,0,1.3,0.1,1.9,0.4c0.5,0.3,1,0.6,1.3,1v-1.3h1.9v9.2h-1.9V19C99,19.4,98.6,19.7,98,20c-0.6,0.3-1.2,0.4-1.9,0.4
		c-0.8,0-1.5-0.2-2.2-0.6c-0.7-0.4-1.2-1-1.6-1.7C92,17.4,91.9,16.6,91.9,15.7z M99.4,15.7c0-0.6-0.1-1.2-0.4-1.6
		c-0.3-0.5-0.6-0.8-1-1.1c-0.4-0.2-0.9-0.4-1.4-0.4s-0.9,0.1-1.4,0.4c-0.4,0.2-0.8,0.6-1,1c-0.3,0.5-0.4,1-0.4,1.6s0.1,1.2,0.4,1.7
		c0.3,0.5,0.6,0.8,1,1.1c0.4,0.2,0.9,0.4,1.4,0.4c0.5,0,0.9-0.1,1.4-0.4c0.4-0.2,0.8-0.6,1-1.1C99.2,16.9,99.4,16.4,99.4,15.7z
		 M108.1,11c0.7,0,1.4,0.1,1.9,0.4c0.6,0.3,1,0.7,1.3,1.3c0.3,0.6,0.5,1.3,0.5,2.1v5.4H110v-5.1c0-0.8-0.2-1.4-0.6-1.9
		c-0.4-0.4-1-0.7-1.7-0.7c-0.7,0-1.3,0.2-1.7,0.7c-0.4,0.4-0.6,1.1-0.6,1.9v5.1h-1.9v-9.2h1.9v1c0.3-0.4,0.7-0.7,1.2-0.9
		C107,11.1,107.5,11,108.1,11z M117.6,15.7l4.2,4.6h-2.6l-3.4-3.9v3.9h-1.9V8h1.9v7.2l3.3-4h2.6L117.6,15.7z"/>
	<path fill="#161616" d="M7.5,9.9c0.7,0,1.2-0.6,1.2-1.3c0-0.7-0.6-1.3-1.2-1.3c-0.7,0-1.2,0.6-1.2,1.3C6.2,9.3,6.8,9.9,7.5,9.9z"/>
	<path fill="#161616" d="M6.2,15.6l0-3.5c0-0.3,0.1-0.7,0.4-0.9c0.2-0.2,0.6-0.4,0.9-0.4c0.3,0,0.6,0.1,0.9,0.4
		c0.2,0.2,0.4,0.6,0.4,0.9l0,3.5c0,0.6,0.2,1.2,0.6,1.6c0.4,0.4,1,0.7,1.6,0.7c0.6,0,1.1-0.2,1.6-0.7c0.4-0.4,0.6-1,0.6-1.6V12
		c0-0.3,0.1-0.7,0.4-0.9c0.2-0.2,0.6-0.4,0.9-0.4s0.6,0.1,0.9,0.4c0.2,0.2,0.4,0.6,0.4,0.9v3.6c0,1.3-0.5,2.5-1.4,3.4
		c-0.9,0.9-2.1,1.4-3.3,1.4c-1.2,0-2.4-0.5-3.3-1.4C6.7,18.1,6.2,16.9,6.2,15.6z"/>
	<path fill="#161616" d="M17.8,20.4c0.7,0,1.2-0.6,1.2-1.3c0-0.7-0.6-1.3-1.2-1.3c-0.7,0-1.2,0.6-1.2,1.3
		C16.5,19.8,17.1,20.4,17.8,20.4z"/>
	<path fill="#161616" d="M19,12.1l0,3.5c0,0.3-0.1,0.7-0.4,0.9c-0.2,0.2-0.6,0.4-0.9,0.4s-0.6-0.1-0.9-0.4c-0.2-0.2-0.4-0.6-0.4-0.9
		l0-3.5c0-0.6-0.2-1.2-0.6-1.6c-0.4-0.4-1-0.7-1.6-0.7c-0.6,0-1.1,0.2-1.6,0.7c-0.4,0.4-0.6,1-0.6,1.6v3.6c0,0.3-0.1,0.7-0.4,0.9
		c-0.2,0.2-0.6,0.4-0.9,0.4c-0.3,0-0.6-0.1-0.9-0.4c-0.2-0.2-0.4-0.6-0.4-0.9v-3.6c0-1.3,0.5-2.5,1.4-3.4c0.9-0.9,2.1-1.4,3.3-1.4
		c1.2,0,2.4,0.5,3.3,1.4C18.6,9.7,19,10.9,19,12.1z"/>
</g>
</svg>
